# xmcd
# Track frame offsets:
# 150
# 11320
# 21820
# 29470
# 37570
# 49945
# 58100
# 67250
# 75650
# 86825
# 99500
# 109700
# 121475
# 130250
# 141125
# 148775
# 154775
# 166625
#
# Disc length: 2340 seconds
# Revision: 0
# Processed by: cddbd v1.5.1PL0 Copyright (c) Steve Scherf et al.
# Submitted via: VisiTrax 2.9.10.220 - For more info visit www.synapsa.com
#
DISCID=eb092212
DTITLE=Johnny Cash - This Is Gold [CD2]
DYEAR=2004
DGENRE=
TTITLE0=Oh, Lonesome Me
TTITLE1=Train Of Love
TTITLE2=Hey Good Lookin'
TTITLE3=The Wreck Of The Old '97
TTITLE4=Next In Line
TTITLE5=Guess Things Happen That Way
TTITLE6=Blue Train
TTITLE7=Country Boy
TTITLE8=Don't Make Me Go
TTITLE9=Folsom Prison Blues
TTITLE10=Goodbye Little Darlin'
TTITLE11=Thanks A Lot
TTITLE12=My Two Timin' Woman
TTITLE13=Belshazzar
TTITLE14=If The Good Lord's Willing
TTITLE15=You Tell Me
TTITLE16=Doin' My Time
TTITLE17=Life Goes On
EXTD=
EXTT0=
EXTT1=
EXTT2=
EXTT3=
EXTT4=
EXTT5=
EXTT6=
EXTT7=
EXTT8=
EXTT9=
EXTT10=
EXTT11=
EXTT12=
EXTT13=
EXTT14=
EXTT15=
EXTT16=
EXTT17=
PLAYORDER=
